<svg viewBox="0 0 200 200" xmlns="http://www.w3.org/2000/svg">
  <path fill="#EEEEEE" d="M28.1,-48.5C35.4,-44.5,39.5,-34.9,44.4,-25.8C49.3,-16.8,55,-8.4,61.2,3.6C67.4,15.6,74.1,31.1,71.2,43.6C68.3,56,55.7,65.3,42.2,69C28.7,72.6,14.4,70.5,3.6,64.2C-7.1,57.9,-14.2,47.4,-28.3,44.1C-42.5,40.9,-63.7,45,-71.9,38.9C-80,32.7,-75,16.4,-66.4,5C-57.7,-6.4,-45.4,-12.7,-41.5,-26.1C-37.5,-39.5,-41.9,-59.9,-36.4,-64.9C-30.9,-69.8,-15.4,-59.4,-2.5,-55.1C10.4,-50.7,20.9,-52.5,28.1,-48.5Z" transform="translate(100 100)" />
</svg>
