<?xml version="1.0" ?><!DOCTYPE svg  PUBLIC '-//W3C//DTD SVG 1.1//EN'  'http://www.w3.org/Graphics/SVG/1.1/DTD/svg11.dtd'><svg enable-background="new 0 0 128 128" id="Слой_1" version="1.1" viewBox="0 0 128 128" xml:space="preserve" xmlns="http://www.w3.org/2000/svg" xmlns:xlink="http://www.w3.org/1999/xlink"><g><g><g><g><path d="M34,100.5H14c-0.8,0-1.5-0.7-1.5-1.5s0.7-1.5,1.5-1.5h20c0.8,0,1.5,0.7,1.5,1.5S34.8,100.5,34,100.5z" fill="#62666B"/></g><g><path d="M34,90.5H14c-0.8,0-1.5-0.7-1.5-1.5s0.7-1.5,1.5-1.5h20c0.8,0,1.5,0.7,1.5,1.5S34.8,90.5,34,90.5z" fill="#62666B"/></g><g><path d="M34,80.5H14c-0.8,0-1.5-0.7-1.5-1.5s0.7-1.5,1.5-1.5h20c0.8,0,1.5,0.7,1.5,1.5S34.8,80.5,34,80.5z" fill="#62666B"/></g><g><path d="M34,70.5H14c-0.8,0-1.5-0.7-1.5-1.5s0.7-1.5,1.5-1.5h20c0.8,0,1.5,0.7,1.5,1.5S34.8,70.5,34,70.5z" fill="#62666B"/></g><g><path d="M34,60.5H14c-0.8,0-1.5-0.7-1.5-1.5s0.7-1.5,1.5-1.5h20c0.8,0,1.5,0.7,1.5,1.5S34.8,60.5,34,60.5z" fill="#62666B"/></g><g><path d="M34,50.5H14c-0.8,0-1.5-0.7-1.5-1.5s0.7-1.5,1.5-1.5h20c0.8,0,1.5,0.7,1.5,1.5S34.8,50.5,34,50.5z" fill="#62666B"/></g></g><path d="M114,12.5H14C7.7,12.5,2.5,17.7,2.5,24v10v70c0,6.3,5.2,11.5,11.5,11.5h100c6.3,0,11.5-5.2,11.5-11.5V34    V24C125.5,17.7,120.3,12.5,114,12.5z M5.5,24c0-4.7,3.8-8.5,8.5-8.5h100c4.7,0,8.5,3.8,8.5,8.5v8.5H5.5V24z M114,112.5H14    c-4.7,0-8.5-3.8-8.5-8.5V35.5h37V100c0,0.8,0.7,1.5,1.5,1.5s1.5-0.7,1.5-1.5V35.5h77V104C122.5,108.7,118.7,112.5,114,112.5z" fill="#62666B"/><g><path d="M16.5,27c-1.7,0-3-1.3-3-3s1.3-3,3-3s3,1.3,3,3S18.2,27,16.5,27z" fill="#62666B"/></g><g><path d="M26.5,27c-1.7,0-3-1.3-3-3s1.3-3,3-3s3,1.3,3,3S28.2,27,26.5,27z" fill="#62666B"/></g><g><path d="M36.5,27c-1.7,0-3-1.3-3-3s1.3-3,3-3s3,1.3,3,3S38.2,27,36.5,27z" fill="#62666B"/></g></g><g><g><path d="M114,70.5H54c-0.8,0-1.5-0.7-1.5-1.5V49c0-0.8,0.7-1.5,1.5-1.5h60c0.8,0,1.5,0.7,1.5,1.5v20     C115.5,69.8,114.8,70.5,114,70.5z M55.5,67.5h57v-17h-57V67.5z" fill="#62666B"/></g><g><path d="M74,100.5H54c-0.8,0-1.5-0.7-1.5-1.5V79c0-0.8,0.7-1.5,1.5-1.5h20c0.8,0,1.5,0.7,1.5,1.5v20     C75.5,99.8,74.8,100.5,74,100.5z M55.5,97.5h17v-17h-17V97.5z" fill="#62666B"/></g><g><g><path d="M114,80.5H89c-0.8,0-1.5-0.7-1.5-1.5s0.7-1.5,1.5-1.5h25c0.8,0,1.5,0.7,1.5,1.5S114.8,80.5,114,80.5z" fill="#62666B"/></g><g><path d="M114,90.5H89c-0.8,0-1.5-0.7-1.5-1.5s0.7-1.5,1.5-1.5h25c0.8,0,1.5,0.7,1.5,1.5S114.8,90.5,114,90.5z" fill="#62666B"/></g><g><path d="M114,100.5H89c-0.8,0-1.5-0.7-1.5-1.5s0.7-1.5,1.5-1.5h25c0.8,0,1.5,0.7,1.5,1.5S114.8,100.5,114,100.5z      " fill="#62666B"/></g></g></g></g></svg>