<?xml version="1.0" encoding="UTF-8"?> <svg xmlns="http://www.w3.org/2000/svg" width="483" height="362" viewBox="0 0 483 362" fill="none"><path d="M352.118 160.141C348.023 184.361 360.611 204.021 360.611 204.021C368.746 185.404 352.118 160.141 352.118 160.141Z" fill="white"></path><path d="M361.55 215.089C387.66 225.769 412.481 214.799 412.481 214.799C393.558 200.424 361.55 215.089 361.55 215.089Z" fill="white"></path><path d="M408.135 158.623C407.768 158.234 393.116 172.997 375.411 191.593C357.701 210.195 343.646 225.584 344.012 225.973C344.379 226.362 359.029 211.602 376.739 193C394.443 174.405 408.501 159.012 408.135 158.623Z" fill="white"></path><path d="M456.146 120.138C456.146 120.138 413.388 127.555 401.545 166.454C401.545 166.454 438.11 160.656 456.146 120.138Z" fill="white"></path><path d="M394.803 113.39C394.803 113.39 364.668 146.245 377.13 184.933C377.13 184.933 403.21 157.274 394.803 113.39Z" fill="white"></path><path d="M460.796 182.242C425.59 167.174 393.674 181.656 393.674 181.656C419.669 201.61 460.796 182.242 460.796 182.242Z" fill="white"></path><path d="M79.3171 183.252C83.6771 196.488 78.2922 208.587 78.2922 208.587C72.1434 198.838 79.3171 183.252 79.3171 183.252Z" fill="white"></path><path d="M78.7087 214.874C64.9745 223.088 50.1192 219.051 50.1192 219.051C59.5075 209.376 78.7087 214.874 78.7087 214.874Z" fill="white"></path><path d="M47.7704 187.174C47.9431 186.924 57.4186 193.956 68.9326 202.877C80.4505 211.801 89.6446 219.235 89.472 219.484C89.2997 219.733 79.8258 212.703 68.3081 203.78C56.7942 194.859 47.598 187.423 47.7704 187.174Z" fill="white"></path><path d="M17.5647 169.68C17.5647 169.68 42.1773 170.197 52.1338 191.004C52.1338 191.004 31.132 190.868 17.5647 169.68Z" fill="white"></path><path d="M51.3937 160.669C51.3937 160.669 71.0947 176.528 67.4012 199.288C67.4012 199.288 50.4176 185.998 51.3937 160.669Z" fill="white"></path><path d="M20.2478 204.907C38.7093 193.457 57.8436 198.86 57.8436 198.86C44.9644 212.266 20.2478 204.907 20.2478 204.907Z" fill="white"></path><path d="M348.671 159.971C347.243 156.747 346.92 153.178 345.976 149.792C345.47 147.973 344.617 146.038 342.913 145.232C341.713 144.872 340.49 144.595 339.252 144.403C334.945 143.114 333.77 137.103 329.694 135.238C328.378 134.748 326.996 134.46 325.594 134.386C320.136 133.741 314.494 131.853 311.062 127.569C310.083 126.079 308.956 124.69 307.7 123.424C306.295 122.295 304.13 121.812 302.771 122.964C303.923 125.266 305.051 127.569 306.18 129.849C307.076 131.988 308.373 133.934 310.003 135.583C311.753 137.126 314.333 137.933 316.428 136.965C317.066 136.518 317.815 136.255 318.593 136.205C319.156 136.322 319.656 136.642 319.998 137.103C322.969 140.396 322.002 145.854 319.1 149.217C316.221 152.556 311.937 154.306 307.815 155.941C306.39 156.654 304.797 156.964 303.209 156.839C300.353 156.309 298.833 153.201 298.004 150.414C296.139 144.242 295.24 137.541 291.417 132.336C290.197 130.701 288.677 129.204 287.94 127.293C287.157 125.22 287.341 122.802 286.097 120.983C284.807 119.072 282.067 117.966 281.883 115.663C281.768 114.051 283.103 112.623 284.577 111.932C286.051 111.219 287.709 111.011 289.23 110.39C289.829 110.136 290.496 109.699 290.519 109.054C290.519 108.087 289.184 107.695 288.838 106.797C288.469 105.784 289.506 104.839 289.943 103.849C290.888 101.592 288.538 99.3123 286.258 98.3914C284.002 97.4703 281.261 96.8024 280.201 94.5914C279.816 93.53 279.568 92.4233 279.465 91.2986C278.935 88.5121 276.885 85.8177 274.076 85.3569C271.242 84.8963 268.111 87.4064 268.571 90.216C268.848 91.759 269.999 92.9565 270.621 94.3842C271.266 95.812 271.082 97.9308 269.608 98.3914C267.189 99.1283 264.863 94.7069 262.837 96.2265C263.666 99.0593 264.472 101.892 265.301 104.747C262.123 106.359 258.323 103.435 256.964 100.119C255.605 96.8253 255.559 93.0484 253.947 89.8703C252.335 86.6698 247.982 84.2978 245.218 86.5542C245.08 90.6536 250.493 92.3117 252.888 95.628C254.615 98.0229 254.361 101.915 251.805 103.435C249.272 104.955 245.242 102.306 246.209 99.5197C246.554 98.5525 247.36 97.7464 247.452 96.7102C247.545 95.4206 246.462 94.3842 245.472 93.5552C243.929 92.2424 242.385 90.9527 240.843 89.6631C239.896 88.7575 238.775 88.0525 237.549 87.5904C234.371 86.6698 231.193 89.2487 229.512 92.0812C227.831 94.9371 226.886 98.2761 224.56 100.648C221.221 104.103 214.888 104.31 211.756 100.694C208.601 97.0786 210.212 90.3083 214.841 88.9956C216.592 88.5121 218.803 88.5581 219.724 87.015C221.336 84.2745 216.73 80.774 218.319 78.0104C219.54 75.8922 222.764 76.8595 225.113 76.1453C227.439 75.4313 228.752 73.0823 230.133 71.056C231.493 69.0522 233.635 67.0259 236.029 67.5553C235.706 66.1633 235.794 64.7073 236.283 63.3643C236.904 62.0749 238.655 61.2454 239.806 62.0749C238.632 64.009 240.037 66.7032 242.086 67.6704C244.136 68.638 246.531 68.4076 248.788 68.1542C251.045 67.878 253.878 67.049 254.062 64.7919C254.132 64.0549 253.855 63.2722 254.132 62.5811C255.122 59.8867 260.096 63.5944 262.008 61.4297C263.113 60.3014 261.893 58.2975 260.349 57.9292C258.829 57.5378 257.24 58.1135 255.674 58.1595C254.108 58.2285 252.196 57.3996 252.127 55.8337C252.059 54.2905 253.786 53.1852 253.97 51.6656C254.27 49.0863 249.894 48.4184 248.351 50.5139C246.831 52.6094 247.36 55.4883 247.821 58.0445C248.304 60.6007 248.535 63.6175 246.646 65.4137C245.84 66.6342 243.745 65.9893 243.054 64.7001C242.339 63.4103 242.501 61.8441 242.385 60.3935C242.271 58.9193 241.626 57.2613 240.198 56.8699C239.208 56.5935 238.148 57.0771 237.135 57.2153C233.128 57.6989 230.341 52.5178 231.608 48.695C232.851 44.8487 236.49 42.3847 240.014 40.4274C242.593 38.9995 245.794 37.6636 248.351 39.1145C249.548 39.7822 250.377 40.9338 251.552 41.6249C253.578 42.8222 256.089 42.3847 258.415 42.4307C262.103 42.5332 265.643 43.9083 268.433 46.3229C269.47 47.2667 270.437 48.833 269.631 49.9615C268.756 51.1588 266.246 51.4121 266.683 52.8169C267.361 53.0045 268.07 53.0469 268.765 52.9413C269.461 52.8357 270.126 52.5844 270.717 52.204C271.308 51.8235 271.813 51.3224 272.197 50.7335C272.581 50.1446 272.837 49.4812 272.947 48.7867C273.613 49.0936 274.187 49.5699 274.611 50.1679C275.036 50.766 275.296 51.465 275.365 52.195C276.123 51.4953 277.018 50.9606 277.994 50.6246C278.969 50.2887 280.004 50.1588 281.032 50.2432C282.06 50.3276 283.06 50.6245 283.967 51.1151C284.875 51.6057 285.671 52.2792 286.305 53.0932C286.822 54.0731 287.508 54.9541 288.331 55.6957C289.253 56.2944 290.864 55.9948 290.98 54.9124C290.999 54.5648 290.936 54.2175 290.796 53.8991C290.243 52.333 289.667 50.7905 289.114 49.2474C291.256 48.0959 293.79 49.8923 295.24 51.8267C300.629 59.0349 304.476 54.7052 312.075 55.8798C317.211 56.6627 319.468 59.9557 322.37 63.9401C331.26 76.1914 343.006 86.2322 351.089 99.0362C351.941 100.372 352.724 101.73 353.461 103.112C353.323 102.767 353.208 102.421 353.069 102.076C349.911 93.7651 345.979 85.7696 341.324 78.1949C340.334 76.583 339.321 74.994 338.284 73.428C337.639 72.4606 336.971 71.4704 336.304 70.5262C335.452 69.2825 334.553 68.0852 333.655 66.8877C332.941 65.9203 332.227 64.9762 331.49 64.0549C330.984 63.4103 330.454 62.7652 329.924 62.1207C329.371 61.3838 328.773 60.6697 328.128 59.9557L326.193 57.722C325.999 57.4804 325.791 57.2497 325.571 57.031C324.904 56.2481 324.19 55.4883 323.476 54.7281C323.426 54.6359 323.355 54.557 323.268 54.498C323.084 54.2905 322.877 54.0834 322.669 53.8762C322.094 53.2312 321.472 52.6094 320.873 51.9878C319.883 50.9746 318.869 49.9615 317.833 48.9939C316.981 48.142 316.106 47.3359 315.208 46.53C314.425 45.8161 313.642 45.1019 312.836 44.4112C312.052 43.7204 311.27 43.0525 310.463 42.3847C309.496 41.5557 308.506 40.7494 307.492 39.9435H307.469C304.683 37.7096 301.812 35.5985 298.856 33.6104C298.12 33.104 297.405 32.6203 296.668 32.137C295.931 31.63 295.171 31.1694 294.434 30.7087C293.674 30.2484 292.937 29.7648 292.177 29.3273C291.417 28.8435 290.657 28.406 289.897 27.9682C289.275 27.6001 288.677 27.2545 288.055 26.932C287.75 26.7381 287.435 26.5613 287.111 26.4024C285.798 25.6655 284.462 24.9513 283.127 24.2839C282.459 23.9383 281.79 23.5931 281.1 23.2704C280.248 22.8329 279.373 22.4182 278.497 22.0268C278.374 21.9518 278.242 21.89 278.106 21.8426C277.323 21.4743 276.54 21.1059 275.733 20.7603C274.605 20.2767 273.477 19.7933 272.348 19.3326C271.059 18.8028 269.769 18.2733 268.456 17.7894C267.005 17.2371 265.554 16.7072 264.08 16.2236C262.606 15.7172 261.109 15.2333 259.613 14.7726C258.115 14.312 256.618 13.8975 255.098 13.483C252.105 12.6771 249.065 11.9631 246.001 11.3414C245.956 11.3185 245.886 11.3185 245.84 11.2953C244.666 11.0652 243.491 10.8348 242.317 10.6508C242.242 10.6265 242.165 10.6109 242.086 10.6045C241.58 10.5124 241.05 10.4205 240.52 10.3513C238.332 9.98273 236.121 9.6834 233.887 9.42997C233.635 9.38429 233.358 9.36119 233.081 9.33797C232.437 9.24586 231.792 9.19975 231.124 9.13075C229.65 8.99242 228.176 8.87731 226.679 8.7852C225.136 8.6701 223.57 8.60109 222.004 8.55509C220.369 8.48588 218.734 8.46277 217.099 8.46277C212.769 8.46277 208.485 8.64699 204.247 9.03842C203.234 9.10764 202.244 9.19975 201.254 9.31508C200.217 9.42997 199.181 9.54519 198.145 9.68341C197.108 9.82141 196.072 9.95984 195.058 10.1212C194.022 10.2821 193.009 10.4432 191.972 10.6277C191.097 10.7656 190.199 10.927 189.324 11.1113C187.159 11.5257 185.017 11.9862 182.899 12.4929C181.908 12.7232 180.918 12.9766 179.928 13.2529C178.937 13.5061 177.947 13.7825 176.98 14.0591C175.344 14.5194 173.756 15.0261 172.166 15.5328H172.143C170.854 15.9704 169.541 16.4081 168.275 16.8457C168.24 16.8513 168.208 16.8672 168.182 16.8913C166.869 17.352 165.603 17.8356 164.313 18.3421C164.244 18.3652 164.175 18.3881 164.106 18.4113C162.931 18.872 161.757 19.3555 160.605 19.8394C159.154 20.4381 157.726 21.083 156.321 21.7277C155.124 22.2803 153.949 22.8329 152.798 23.4089C151.554 24.0306 150.311 24.6522 149.09 25.2972L148.952 25.3664C147.777 25.9879 146.603 26.6329 145.451 27.3004C144.254 27.9682 143.079 28.6592 141.905 29.3965H141.881C140.776 30.0642 139.694 30.7318 138.611 31.4228C138.197 31.6762 137.805 31.9527 137.391 32.2287C136.239 32.966 135.133 33.7255 134.005 34.5086C132.623 35.4529 131.287 36.443 129.952 37.4335C128.777 38.3087 127.626 39.2066 126.497 40.1048C119.982 45.2931 113.925 51.0331 108.396 57.2613C106.438 59.4261 104.596 61.6371 102.799 63.8937C101.279 65.8281 99.8054 67.7859 98.4 69.8124C97.1338 71.574 95.9123 73.3683 94.7356 75.1952C95.9129 73.3702 97.1343 71.5759 98.4 69.8124C98.769 69.7664 99.1373 69.7201 99.5056 69.6972C101.578 69.5361 103.766 69.6052 105.632 68.707C107.359 67.8549 108.58 66.3117 110.146 65.2066C114.153 62.3508 120.717 61.8211 121.799 57.031C122.168 55.419 121.73 53.669 122.328 52.126C123.457 49.2474 127.303 48.833 130.389 48.8791C131.702 48.8791 133.245 49.0631 133.844 50.2144C134.009 50.6446 134.082 51.1047 134.058 51.5648C134.035 52.025 133.914 52.4751 133.706 52.886C131.778 58.3005 128.045 62.8866 123.135 65.8742C119.127 68.3155 113.899 70.2038 112.794 74.7633C113.347 76.3064 116.157 76.1914 116.387 77.8032C116.548 79.093 114.89 79.7607 114.291 80.9125C113.416 82.5935 115.42 84.6431 117.331 84.5507C119.243 84.4587 120.832 83.077 122.237 81.7873C126.428 77.8955 130.827 73.7041 132.347 68.1773C132.992 65.8974 133.222 63.2259 135.064 61.7059C135.633 61.3052 136.287 61.0419 136.975 60.9365C137.663 60.8312 138.366 60.8867 139.029 61.0987C139.691 61.3107 140.296 61.6734 140.795 62.1583C141.294 62.6433 141.674 63.2373 141.905 63.8937C143.724 62.8807 146.557 62.1207 147.501 64.009C147.713 64.7134 147.844 65.4396 147.892 66.1737C148.491 69.1214 152.522 70.4569 152.936 73.428C153.42 76.8594 149.021 78.6324 145.589 79.1621C142.48 79.6455 139.371 80.1291 136.262 80.636C134.892 80.7364 133.565 81.1627 132.393 81.8795C131.817 82.2596 131.388 82.8258 131.178 83.4837C130.969 84.1416 130.991 84.8515 131.241 85.4949C131.706 86.1137 132.248 86.6709 132.854 87.1531C135.433 89.7323 133.314 95.0521 129.676 95.1674C128.432 95.2134 127.211 94.7529 125.968 94.7069C122.283 94.5455 119.358 97.7928 117.608 101.04C115.857 104.287 114.544 107.995 111.597 110.205C106.852 113.775 98.6766 112.946 96.3735 118.427C95.4521 120.637 95.936 123.124 96.3043 125.496C96.6731 127.846 96.834 130.471 95.4521 132.428C94.0936 134.363 90.5467 134.777 89.5336 132.613C89.1879 131.627 89.1399 130.562 89.3955 129.549C89.948 126.141 90.4775 122.733 91.0076 119.325C91.3988 116.791 91.7445 113.959 90.2476 111.886C88.1519 108.985 83.4535 109.261 80.7357 111.587C78.0414 113.913 76.913 117.552 76.1532 121.029C75.6372 124.175 74.756 127.251 73.5275 130.194V130.194C73.0438 133.05 72.6521 135.952 72.3528 138.876C72.0534 141.87 71.846 144.841 71.7312 147.881C72.1459 147.538 72.5383 147.169 72.9058 146.775C74.3565 145.278 77.2816 138.946 79.9069 142.054C80.2327 142.461 80.414 142.965 80.4223 143.486C80.4307 144.007 80.2656 144.516 79.953 144.933C79.1471 145.969 77.5346 146.2 76.913 147.328C76.1532 148.664 77.2124 150.322 78.4561 151.197C79.6995 152.095 81.2194 152.648 82.0948 153.914C83.7759 156.332 82.1641 159.994 83.799 162.458C85.2036 164.577 88.1977 164.715 90.754 164.991C91.0536 165.038 91.33 165.084 91.6292 165.13C92.3434 160.063 94.7155 155.941 101.625 154.375C111.159 152.21 123.688 160.109 129.053 167.294C135.041 175.332 137.874 186.708 147.04 190.738C153.604 193.617 162.931 192.58 166.132 199.005C168.988 204.763 164.014 211.234 163.254 217.613C162.77 221.827 164.152 226.018 164.474 230.232C164.774 234.47 163.53 239.399 159.684 241.172C157.542 242.139 154.848 242.024 153.12 243.636C150.057 246.537 152.568 252.525 149.504 255.427C148.31 256.289 146.999 256.979 145.612 257.476C138.726 260.954 138.911 271.086 142.112 278.11C142.227 278.364 142.342 278.594 142.457 278.847C165.019 292.333 190.813 299.455 217.099 299.458C240.911 299.492 264.365 293.655 285.383 282.463H285.406C289.828 280.099 294.126 277.509 298.28 274.702C304.683 270.405 310.729 265.6 316.359 260.332C320.259 256.698 323.949 252.846 327.414 248.794C329.855 245.985 332.158 243.06 334.369 240.066C335.497 238.524 336.603 236.98 337.639 235.391C345.449 223.923 351.546 211.379 355.741 198.153C358.324 190.114 360.181 181.86 361.292 173.489C361.729 170.219 362.074 166.903 362.305 163.564C360.776 165.171 358.673 166.107 356.455 166.166C352.955 166.12 350.076 163.195 348.671 159.971Z" fill="#FAFAFA"></path><path d="M182.349 46.5434C179.466 48.2665 177.932 51.5202 175.708 54.0375C173.485 56.5552 169.494 58.3492 166.868 56.2545C166.27 55.7082 165.788 55.048 165.449 54.3125C165.109 53.5771 164.921 52.7812 164.894 51.9718C164.692 49.6393 165.241 47.3034 166.46 45.305C167.714 43.2624 169.627 41.655 170.688 39.5061C171.75 37.357 171.532 34.211 169.358 33.2029C168.181 32.6577 166.702 32.8716 165.658 32.1025C163.782 30.7201 165.125 27.4541 167.304 26.6291C169.484 25.8043 171.902 26.4436 174.228 26.5917C182.664 27.13 188.867 21.6065 195.209 17.019C200.14 13.4509 210.646 9.23695 216.354 12.8821C218.632 14.3363 219.522 18.0751 217.376 19.7182C216.416 20.4531 215.092 20.6171 214.198 21.4311C213.126 22.4076 212.975 24.0119 212.36 25.3259C210.764 28.7398 206.159 29.9795 204.677 33.445C203.784 35.5309 204.187 38.1257 202.811 39.9303C201.72 41.3607 199.829 41.866 198.079 42.2818C194.412 43.1534 190.745 44.0252 187.078 44.8971C185.427 45.2025 183.833 45.7576 182.349 46.5434V46.5434Z" fill="#EBEBEB"></path><path d="M280.69 225.665C277.04 231.164 276.378 238.036 275.366 244.557C274.352 251.079 272.613 258.009 267.602 262.304C262.59 266.598 253.386 266.344 250.629 260.348C249.131 257.093 249.899 253.256 249.083 249.767C248.019 245.223 244.401 241.716 242.685 237.377C241.221 233.674 241.217 229.584 241.098 225.605C240.445 203.859 235.142 181.163 220.336 165.222C218.517 163.263 216.452 161.356 213.869 160.67C212.321 160.286 210.695 160.358 209.187 160.878C207.679 161.399 206.355 162.344 205.372 163.6C204.184 165.174 203.57 167.181 202.114 168.511C198.95 171.4 193.426 169.33 191.313 165.603C189.2 161.876 189.492 157.308 189.846 153.038C190.284 147.744 190.722 142.45 191.161 137.156C191.39 134.387 191.701 131.414 193.518 129.312C196.103 126.324 200.739 126.183 203.901 123.814C208.047 120.708 208.6 114.784 211.214 110.312C213.828 105.84 222.012 103.949 223.221 108.986C231.876 90.4613 251.004 117.982 262.378 115.913C265.68 115.312 268.908 113.726 272.232 114.19C278.104 115.012 281.135 121.48 283.133 127.062C286.449 136.326 289.765 145.591 293.081 154.855C294.344 158.384 295.976 162.307 299.47 163.662C302.149 164.7 305.261 163.908 307.961 164.89C315.098 167.487 312.778 178.719 307.034 183.688C301.291 188.657 293.229 191.793 290.499 198.88C288.442 204.219 290.083 210.475 287.869 215.751C286.285 219.526 282.954 222.255 280.69 225.665Z" fill="#EBEBEB"></path><path d="M307.784 231.704C305.439 232.032 302.671 230.875 300.888 232.434C299.848 233.344 299.618 234.837 299.204 236.156C298.688 238.024 297.506 239.638 295.881 240.695C295.064 241.203 294.117 241.465 293.155 241.447C292.192 241.43 291.255 241.134 290.457 240.597C289.693 240.015 289.187 239.158 289.048 238.208C288.909 237.258 289.147 236.292 289.712 235.515C290.358 234.93 291.034 234.377 291.736 233.861C294.85 230.919 292.718 225.464 295.085 221.966C296.481 219.904 298.678 217.811 300.211 215.721C301.39 214.115 301.823 212.84 303.99 212.413C313.477 210.546 317.764 230.306 307.784 231.704Z" fill="#EBEBEB"></path><g opacity="0.6"><path opacity="0.6" d="M136.092 274.82C137.316 275.646 138.555 276.451 139.809 277.235C140.684 277.788 141.559 278.317 142.457 278.847C141.559 278.317 140.684 277.788 139.809 277.235C138.554 276.452 137.315 275.647 136.092 274.82Z" fill="#263238"></path></g><g opacity="0.6"><path opacity="0.6" d="M71.7313 147.904V147.881V147.904C71.7084 148.18 71.6852 148.433 71.6852 148.71C71.6506 149.573 71.6535 150.457 71.6392 151.335C71.6535 150.457 71.6506 149.573 71.6852 148.71C71.6852 148.433 71.7084 148.18 71.7313 147.904Z" fill="#263238"></path></g><path d="M90.5926 192.212C90.1322 188.043 91.5143 183.875 91.5831 179.661C91.6291 176.759 91.4218 173.696 91.3758 170.772C88.8847 170.657 86.4098 170.311 83.9833 169.735C83.4629 169.673 82.9814 169.428 82.6248 169.044C82.3739 168.571 82.2696 168.034 82.325 167.501C82.1409 164.232 78.9855 162.067 76.1531 160.432C74.7352 159.544 73.2304 158.803 71.6621 158.221C71.6621 158.566 71.6621 158.889 71.685 159.234C72.2346 175.027 75.3619 190.624 80.9431 205.408C83.4218 211.978 86.3936 218.353 89.833 224.476C91.2607 227.124 92.8269 229.726 94.4621 232.282C96.4885 235.437 98.6075 238.523 100.887 241.494C103.006 244.35 105.263 247.136 107.635 249.807C110.884 253.512 114.319 257.048 117.93 260.401C121.131 263.395 124.47 266.235 127.948 268.922C120.002 247.597 112.518 225.834 98.93 207.687C95.3603 202.943 91.2607 198.107 90.5926 192.212Z" fill="#EBEBEB"></path><path d="M91.6292 165.13C91.3301 165.084 91.0536 165.038 90.7541 164.991C88.1975 164.715 85.2037 164.577 83.7991 162.458C82.1641 159.994 83.776 156.332 82.0948 153.914C81.2194 152.648 79.6993 152.095 78.4559 151.197C77.2124 150.322 76.153 148.664 76.9131 147.328C77.5344 146.2 79.1471 145.969 79.953 144.933C80.2656 144.516 80.4307 144.007 80.4223 143.486C80.4139 142.965 80.2326 142.461 79.9067 142.054C77.2816 138.946 74.3565 145.278 72.906 146.775C72.5385 147.169 72.1461 147.538 71.7312 147.881V147.904C71.7083 148.18 71.6851 148.433 71.6851 148.71C71.6506 149.573 71.6535 150.457 71.6391 151.335C71.6246 152.213 71.593 153.085 71.593 153.961C71.593 154.674 71.5813 154.638 71.593 155.349C71.6045 156.06 71.6391 157.518 71.6622 158.221C73.2304 158.803 74.7351 159.544 76.153 160.432C78.9856 162.067 82.141 164.231 82.3251 167.501C82.2698 168.034 82.3741 168.571 82.6249 169.045C82.9816 169.428 83.463 169.673 83.9834 169.736C86.4099 170.311 88.8848 170.658 91.376 170.772" fill="#EBEBEB"></path><path d="M91.3759 170.772C91.4219 173.696 91.6292 176.759 91.5832 179.661C91.5142 183.875 90.1322 188.044 90.5929 192.212C91.2608 198.107 95.3604 202.943 98.9301 207.687C112.518 225.834 120.003 247.597 127.948 268.921H127.971C129.445 270.096 130.942 271.202 132.462 272.284C133.659 273.147 134.87 273.993 136.092 274.82C137.316 275.646 138.555 276.451 139.809 277.235C140.684 277.788 141.559 278.317 142.457 278.847C142.342 278.594 142.227 278.363 142.112 278.11C138.91 271.086 138.726 260.954 145.612 257.476C146.999 256.979 148.31 256.289 149.504 255.427C152.568 252.525 150.057 246.537 153.12 243.636C154.847 242.024 157.542 242.139 159.684 241.172C163.53 239.399 164.774 234.47 164.474 230.233C164.152 226.018 162.77 221.827 163.254 217.613C164.014 211.234 168.988 204.763 166.132 199.006C162.931 192.58 153.604 193.617 147.04 190.738C137.874 186.708 135.041 175.332 129.053 167.294C123.688 160.109 111.159 152.21 101.625 154.375C94.7155 155.941 92.3434 160.063 91.6292 165.13" fill="#EBEBEB"></path><path d="M80.7358 111.587C83.4536 109.261 88.152 108.985 90.2477 111.886C91.7446 113.959 91.3989 116.791 91.0077 119.325C90.4776 122.733 89.9481 126.142 89.3956 129.55C89.14 130.562 89.188 131.627 89.5337 132.613C90.5468 134.777 94.0937 134.363 95.4522 132.428C96.8341 130.471 96.6732 127.846 96.3044 125.497C95.9361 123.124 95.4522 120.637 96.3736 118.427C98.6767 112.946 106.852 113.775 111.597 110.205C114.545 107.995 115.857 104.287 117.608 101.04C119.358 97.7927 122.283 94.5455 125.968 94.707C127.211 94.753 128.432 95.2134 129.676 95.1674C133.314 95.0521 135.433 89.7323 132.854 87.1532C132.248 86.6709 131.707 86.1138 131.242 85.495C130.991 84.8515 130.969 84.1417 131.178 83.4838C131.388 82.8259 131.817 82.2596 132.393 81.8795C133.565 81.1628 134.892 80.7365 136.262 80.6361C139.371 80.1291 142.48 79.6455 145.59 79.1621C149.021 78.6325 153.42 76.8595 152.936 73.428C152.522 70.457 148.491 69.1214 147.892 66.1737C147.844 65.4396 147.713 64.7134 147.501 64.009C146.557 62.1207 143.724 62.8807 141.905 63.8938C141.674 63.2373 141.294 62.6433 140.795 62.1584C140.296 61.6734 139.691 61.3107 139.029 61.0987C138.366 60.8867 137.663 60.8312 136.975 60.9366C136.287 61.0419 135.633 61.3053 135.064 61.7059C133.222 63.2259 132.992 65.8974 132.347 68.1773C130.827 73.7041 126.428 77.8956 122.237 81.7874C120.832 83.077 119.243 84.4588 117.331 84.5508C115.42 84.6431 113.416 82.5936 114.291 80.9125C114.89 79.7608 116.548 79.093 116.387 77.8033C116.157 76.1914 113.347 76.3064 112.794 74.7633C113.9 70.2039 119.127 68.3156 123.135 65.8742C128.045 62.8866 131.778 58.3005 133.706 52.886C133.915 52.4751 134.035 52.0251 134.058 51.5649C134.082 51.1047 134.009 50.6446 133.844 50.2144C133.245 49.0631 131.702 48.8791 130.39 48.8791C127.303 48.833 123.457 49.2474 122.329 52.126C121.73 53.669 122.168 55.4191 121.799 57.031C120.717 61.8212 114.153 62.3508 110.146 65.2066C108.58 66.3117 107.359 67.8549 105.632 68.707C103.766 69.6052 101.579 69.5361 99.5057 69.6972C99.1374 69.7201 98.7691 69.7664 98.4001 69.8124C97.1339 71.5741 95.9124 73.3683 94.7357 75.1952C93.5582 77.0204 92.4231 78.8723 91.3301 80.751C86.1279 89.6528 81.8968 99.0875 78.7094 108.893C77.581 112.335 76.585 115.834 75.7214 119.388C74.8577 122.94 74.1265 126.543 73.5276 130.195C74.7561 127.252 75.6373 124.176 76.1533 121.029C76.9131 117.552 78.0415 113.913 80.7358 111.587Z" fill="#EBEBEB"></path><path d="M362.305 163.541C362.305 163.541 358.643 166.212 356.455 166.166C352.955 166.12 350.076 163.195 348.671 159.971C347.243 156.747 346.92 153.178 345.976 149.792C345.469 147.973 344.617 146.038 342.913 145.232C341.713 144.872 340.49 144.595 339.251 144.403C334.945 143.114 333.77 137.103 329.694 135.238C328.378 134.748 326.996 134.46 325.594 134.386C320.136 133.741 314.494 131.853 311.062 127.569C310.083 126.079 308.956 124.69 307.7 123.424C306.295 122.295 304.13 121.812 302.771 122.964C303.922 125.266 305.051 127.569 306.18 129.849C307.076 131.988 308.373 133.934 310.003 135.583C311.753 137.126 314.333 137.933 316.428 136.965C317.066 136.518 317.815 136.255 318.593 136.205C319.156 136.322 319.656 136.642 319.998 137.103C322.969 140.396 322.002 145.854 319.1 149.217C316.221 152.556 311.937 154.306 307.815 155.941C306.39 156.654 304.797 156.965 303.209 156.839C300.353 156.309 298.833 153.201 298.004 150.414C296.139 144.242 295.24 137.541 291.417 132.336C290.197 130.701 288.677 129.204 287.94 127.293C287.157 125.22 287.341 122.802 286.097 120.983C284.807 119.072 282.067 117.966 281.883 115.663C281.768 114.051 283.103 112.623 284.577 111.932C286.051 111.219 287.709 111.011 289.23 110.39C289.829 110.136 290.496 109.699 290.519 109.054C290.519 108.087 289.183 107.695 288.838 106.797C288.469 105.784 289.506 104.839 289.943 103.849C290.888 101.592 288.538 99.3123 286.258 98.3914C284.002 97.4703 281.261 96.8024 280.201 94.5914C279.815 93.53 279.568 92.4232 279.465 91.2986C278.935 88.5121 276.885 85.8177 274.076 85.3569C271.242 84.8963 268.111 87.4064 268.571 90.216C268.848 91.759 269.999 92.9565 270.621 94.3842C271.266 95.812 271.082 97.9308 269.608 98.3914C267.189 99.1283 264.863 94.7069 262.837 96.2265C263.666 99.0593 264.472 101.892 265.301 104.747C262.123 106.359 258.323 103.435 256.964 100.119C255.605 96.8253 255.559 93.0484 253.947 89.8703C252.335 86.6698 247.982 84.2978 245.218 86.5542C245.08 90.6536 250.493 92.3117 252.888 95.628C254.615 98.0229 254.361 101.915 251.805 103.435C249.272 104.955 245.242 102.306 246.209 99.5197C246.554 98.5525 247.36 97.7464 247.452 96.7102C247.545 95.4206 246.462 94.3842 245.472 93.5552C243.929 92.2424 242.385 90.9527 240.843 89.6631C239.896 88.7575 238.775 88.0525 237.549 87.5904C234.371 86.6698 231.193 89.2487 229.512 92.0812C227.831 94.937 226.886 98.2761 224.56 100.648C221.221 104.103 214.888 104.31 211.756 100.694C208.601 97.0786 210.212 90.3083 214.841 88.9956C216.592 88.5121 218.803 88.5581 219.724 87.015C221.336 84.2745 216.73 80.774 218.319 78.0104C219.54 75.8922 222.764 76.8594 225.113 76.1452C227.439 75.4313 228.752 73.0823 230.133 71.056C231.493 69.0522 233.635 67.0259 236.029 67.5553C235.706 66.1632 235.794 64.7073 236.283 63.3643C236.904 62.0749 238.655 61.2453 239.806 62.0749C238.632 64.0089 240.037 66.7032 242.086 67.6704C244.136 68.638 246.531 68.4076 248.788 68.1542C251.045 67.878 253.878 67.049 254.062 64.7919C254.132 64.0548 253.855 63.2722 254.132 62.5811C255.121 59.8867 260.096 63.5944 262.008 61.4297C263.113 60.3014 261.893 58.2975 260.349 57.9292C258.829 57.5378 257.24 58.1135 255.674 58.1595C254.108 58.2285 252.196 57.3995 252.127 55.8337C252.059 54.2905 253.786 53.1852 253.97 51.6655C254.27 49.0863 249.894 48.4184 248.351 50.5139C246.831 52.6094 247.36 55.4882 247.821 58.0445C248.304 60.6007 248.535 63.6175 246.646 65.4137C245.84 66.6342 243.745 65.9892 243.054 64.7C242.339 63.4103 242.501 61.8441 242.385 60.3935C242.271 58.9193 241.626 57.2613 240.198 56.8699C239.208 56.5934 238.148 57.0771 237.135 57.2153C233.128 57.6989 230.341 52.5178 231.608 48.6949C232.851 44.8487 236.49 42.3846 240.014 40.4274C242.593 38.9995 245.794 37.6635 248.351 39.1145C249.548 39.7822 250.377 40.9338 251.552 41.6249C253.578 42.8222 256.089 42.3846 258.415 42.4306C262.103 42.5331 265.643 43.9083 268.433 46.3229C269.469 47.2667 270.437 48.8329 269.631 49.9615C268.755 51.1588 266.246 51.4121 266.683 52.8169C267.361 53.0045 268.07 53.0469 268.765 52.9413C269.461 52.8357 270.126 52.5844 270.717 52.2039C271.308 51.8235 271.813 51.3224 272.197 50.7335C272.581 50.1446 272.837 49.4812 272.947 48.7867C273.613 49.0936 274.187 49.5698 274.611 50.1679C275.036 50.766 275.296 51.465 275.365 52.195C276.123 51.4953 277.018 50.9606 277.994 50.6246C278.969 50.2886 280.004 50.1588 281.032 50.2432C282.06 50.3276 283.06 50.6245 283.967 51.1151C284.875 51.6056 285.671 52.2792 286.305 53.0932C286.822 54.0731 287.508 54.9541 288.331 55.6957C289.253 56.2943 290.864 55.9948 290.98 54.9124C290.999 54.5648 290.936 54.2175 290.796 53.8991C290.243 52.333 289.667 50.7905 289.114 49.2474C291.256 48.0959 293.79 49.8923 295.24 51.8267C300.629 59.0348 304.476 54.7052 312.075 55.8798C317.211 56.6627 319.468 59.9557 322.37 63.9401C331.26 76.1913 343.006 86.2322 351.089 99.0362C351.941 100.372 352.724 101.73 353.461 103.112L353.461 103.112V103.136C354.152 104.978 354.803 106.832 355.416 108.7C356.029 110.568 356.605 112.452 357.146 114.351C358.583 119.041 359.749 123.81 360.635 128.634C360.635 128.634 361.647 136.863 361.89 139.544C362.077 141.596 362.259 143.649 362.371 145.716C362.483 147.783 362.546 149.861 362.558 151.957L362.305 163.541Z" fill="#EBEBEB"></path><path d="M363.191 153.96C363.191 153.96 363.151 153.158 363.102 151.592C363.078 150.806 363.049 149.834 363.014 148.674C362.986 147.514 362.955 146.167 362.807 144.645L362.405 139.537C362.214 137.661 361.912 135.62 361.638 133.403C360.901 128.313 359.91 123.264 358.669 118.273C357.083 112.032 355.084 105.903 352.683 99.9272C349.86 92.8056 346.461 85.926 342.521 79.3564C332.9 63.304 320.316 49.2261 305.439 37.872C287.368 24.1171 266.33 14.7804 244.005 10.6084C225.087 7.11621 205.67 7.33853 186.837 11.263C173.405 14.0867 160.446 18.8163 148.354 25.3082C142.109 28.6817 136.104 32.4835 130.384 36.6863C124.583 41.0329 119.083 45.7689 113.925 50.8616C108.733 56.1213 103.918 61.7402 99.5162 67.6767C95.0572 73.736 91.0809 80.1361 87.6239 86.8178C86.7854 88.5173 85.8373 90.1683 85.0835 91.9171C84.2996 93.6514 83.5142 95.389 82.7272 97.1299C81.3197 100.682 79.8643 104.233 78.7034 107.907C76.2382 115.263 74.3802 122.809 73.1479 130.468C70.605 146.014 70.6028 161.87 73.1415 177.417C74.3738 185.079 76.2309 192.628 78.6941 199.987L79.6189 202.72L80.0806 204.085L80.6077 205.424C81.312 207.209 82.015 208.99 82.7165 210.768C83.5038 212.509 84.2895 214.247 85.0736 215.982C85.8254 217.732 86.7753 219.383 87.6136 221.083C91.0699 227.767 95.0464 234.169 99.5064 240.23C103.908 246.169 108.724 251.79 113.917 257.051C119.076 262.145 124.576 266.883 130.378 271.23C141.676 279.596 154.123 286.287 167.333 291.098C173.707 293.374 180.223 295.231 186.839 296.659C205.675 300.583 225.094 300.805 244.014 297.311C266.339 293.138 287.377 283.799 305.448 270.042C320.324 258.687 332.906 244.609 342.525 228.556C346.465 221.987 349.863 215.108 352.685 207.987C355.086 202.012 357.085 195.883 358.67 189.642C359.911 184.653 360.902 179.604 361.638 174.515C361.913 172.298 362.214 170.257 362.405 168.381C362.553 166.502 362.687 164.799 362.807 163.274C362.955 161.752 362.986 160.406 363.014 159.246C363.049 158.087 363.078 157.115 363.102 156.329C363.151 154.763 363.191 153.96 363.191 153.96C363.191 153.96 363.19 154.763 363.16 156.33C363.144 157.115 363.124 158.088 363.101 159.249C363.082 160.41 363.06 161.758 362.921 163.281C362.809 164.807 362.684 166.512 362.546 168.395C362.364 170.273 362.071 172.318 361.805 174.538C361.088 179.637 360.113 184.696 358.884 189.696C357.315 195.952 355.328 202.096 352.937 208.087C350.125 215.229 346.734 222.129 342.798 228.719C333.184 244.828 320.591 258.961 305.691 270.361C287.583 284.182 266.489 293.57 244.1 297.774C225.12 301.295 205.635 301.086 186.734 297.159C173.25 294.333 160.24 289.592 148.099 283.081C141.828 279.697 135.799 275.883 130.055 271.666C124.23 267.304 118.708 262.551 113.528 257.439C108.313 252.16 103.478 246.52 99.0584 240.56C94.5797 234.477 90.5865 228.051 87.1157 221.342C86.2737 219.635 85.3203 217.978 84.5649 216.221C83.7774 214.48 82.9885 212.735 82.198 210.987C81.4933 209.203 80.7873 207.415 80.08 205.624L79.5507 204.279L79.0869 202.909L78.1582 200.165C75.6844 192.777 73.8194 185.2 72.5818 177.508C70.0324 161.901 70.0346 145.984 72.5882 130.378C73.8259 122.688 75.6919 115.113 78.1675 107.728C79.3336 104.041 80.7948 100.476 82.2087 96.9103C82.9989 95.1627 83.7876 93.4185 84.5749 91.6776C85.3322 89.9223 86.2837 88.2649 87.126 86.5591C90.5976 79.8523 94.5906 73.4287 99.0682 67.3473C103.488 61.3894 108.323 55.7507 113.536 50.473C118.715 45.3627 124.237 40.6109 130.061 36.2505C141.403 27.8607 153.896 21.1517 167.154 16.3311C173.552 14.051 180.091 12.1908 186.731 10.7623C205.63 6.83561 225.113 6.62616 244.092 10.1457C266.48 14.3482 287.573 23.7344 305.682 37.5528C320.583 48.9527 333.178 63.0846 342.793 79.194C346.73 85.784 350.121 92.6846 352.934 99.827C355.326 105.818 357.313 111.963 358.883 118.219C360.112 123.22 361.087 128.28 361.805 133.379C362.071 135.6 362.364 137.645 362.546 139.523C362.684 141.405 362.809 143.11 362.921 144.638C363.06 146.162 363.082 147.51 363.101 148.671C363.124 149.83 363.144 150.804 363.16 151.591C363.19 153.158 363.191 153.96 363.191 153.96Z" fill="#263238"></path><path class="strokeline" d="M111 197.5C145.167 170.667 238.4 118.4 338 124" stroke="#B6B9BD" stroke-width="3" stroke-linecap="round" stroke-dasharray="10 10"></path><path class="loc2" d="M119.502 180.717C119.505 179.063 119.126 177.43 118.395 175.946C117.665 174.462 116.601 173.167 115.288 172.161C113.975 171.155 112.448 170.465 110.824 170.145C109.201 169.826 107.526 169.885 105.93 170.318C104.333 170.751 102.858 171.547 101.619 172.643C100.38 173.739 99.411 175.106 98.7865 176.638C98.162 178.17 97.8993 179.825 98.0188 181.475C98.1383 183.124 98.6368 184.724 99.4755 186.15H99.4694L99.5001 186.191C99.9126 186.886 100.429 187.383 100.951 188.113L107.196 196.385C107.377 196.625 107.612 196.819 107.881 196.953C108.15 197.087 108.446 197.157 108.746 197.157C109.047 197.157 109.343 197.087 109.612 196.953C109.881 196.819 110.115 196.624 110.297 196.385L116.437 188.249C116.996 187.589 117.518 186.898 117.999 186.18L118.022 186.15H118.017C118.989 184.504 119.502 182.628 119.502 180.717V180.717ZM108.746 185.399C107.81 185.399 106.895 185.122 106.117 184.602C105.338 184.082 104.732 183.343 104.373 182.478C104.015 181.613 103.921 180.661 104.104 179.743C104.287 178.825 104.737 177.981 105.399 177.32C106.061 176.658 106.905 176.207 107.823 176.024C108.741 175.842 109.693 175.935 110.558 176.294C111.423 176.652 112.162 177.258 112.682 178.037C113.202 178.815 113.48 179.73 113.48 180.666C113.48 181.922 112.981 183.126 112.093 184.013C111.206 184.901 110.002 185.399 108.746 185.399V185.399Z" fill="#81184E"></path><path class="loc1" d="M361.903 86.1657C361.91 82.4915 361.069 78.8653 359.445 75.5691C357.822 72.273 355.46 69.3957 352.543 67.161C349.627 64.9263 346.234 63.3945 342.629 62.6846C339.024 61.9747 335.303 62.106 331.757 63.0681C328.211 64.0302 324.934 65.7973 322.182 68.232C319.431 70.6666 317.277 73.7032 315.89 77.1056C314.503 80.5079 313.92 84.1844 314.185 87.849C314.45 91.5136 315.558 95.0676 317.42 98.2346H317.407L317.475 98.3244C318.391 99.8681 319.539 100.972 320.699 102.594L334.57 120.967C334.972 121.5 335.492 121.932 336.09 122.23C336.687 122.527 337.346 122.682 338.013 122.682C338.68 122.682 339.339 122.527 339.936 122.229C340.534 121.932 341.054 121.5 341.456 120.967L355.096 102.896C356.338 101.43 357.496 99.8956 358.566 98.2998L358.615 98.2346H358.606C360.764 94.5788 361.903 90.4111 361.903 86.1657V86.1657ZM338.013 96.5668C335.934 96.5668 333.901 95.9502 332.172 94.795C330.443 93.6398 329.095 91.9979 328.3 90.0769C327.504 88.1559 327.296 86.042 327.701 84.0027C328.107 81.9633 329.108 80.09 330.579 78.6197C332.049 77.1495 333.922 76.1482 335.962 75.7425C338.001 75.3369 340.115 75.5451 342.036 76.3408C343.958 77.1365 345.6 78.484 346.755 80.2129C347.91 81.9418 348.527 83.9744 348.527 86.0537C348.527 88.8419 347.419 91.516 345.447 93.4875C343.476 95.4591 340.801 96.5668 338.013 96.5668Z" fill="#81184E"></path><g class="document"><path d="M80.0186 231.973L132.359 205.305C134.539 204.193 137.072 203.994 139.4 204.75C141.727 205.507 143.659 207.156 144.77 209.337L179.209 276.919C179.759 277.999 180.091 279.177 180.186 280.385C180.281 281.593 180.137 282.808 179.763 283.96C179.388 285.113 178.791 286.18 178.004 287.101C177.217 288.023 176.256 288.78 175.176 289.33L122.836 315.999L80.0186 231.973Z" fill="#455A64"></path><path d="M145.841 271.826C143.96 273.506 141.662 274.649 139.186 275.134C136.711 275.619 134.151 275.428 131.776 274.581C128.054 273.28 124.985 270.584 123.215 267.062C121.385 263.622 120.993 259.598 122.124 255.869C123.256 252.141 125.819 249.014 129.253 247.172C130.954 246.306 132.815 245.796 134.72 245.674C136.625 245.551 138.536 245.818 140.334 246.459C144.044 247.779 147.107 250.47 148.894 253.978C150.682 257.486 151.058 261.545 149.946 265.322C149.202 267.826 147.782 270.077 145.841 271.826V271.826ZM126.983 249.971C124.749 252.045 123.26 254.796 122.746 257.8C122.232 260.804 122.721 263.893 124.138 266.591C125.787 269.875 128.647 272.389 132.115 273.602C133.782 274.198 135.552 274.447 137.319 274.334C139.085 274.221 140.809 273.748 142.386 272.945C143.963 272.141 145.359 271.024 146.489 269.662C147.618 268.299 148.457 266.721 148.955 265.022C150.012 261.504 149.659 257.712 147.971 254.448V254.448C146.323 251.165 143.462 248.651 139.994 247.437C138.328 246.843 136.557 246.595 134.791 246.708C133.025 246.821 131.301 247.293 129.724 248.095C128.733 248.599 127.811 249.23 126.983 249.971Z" fill="white"></path><path d="M148.016 253.427L123.091 266.126L123.561 267.05L148.486 254.35L148.016 253.427Z" fill="white"></path><path d="M129.618 247.59L128.695 248.06L141.811 273.812L142.735 273.341L129.618 247.59Z" fill="white"></path><path d="M142.695 273.714L141.72 273.367C143.063 270.008 143.705 266.411 143.609 262.795C143.302 258.935 141.634 255.31 138.901 252.566C136.268 250.088 132.54 249.046 129.251 248.128L129.529 247.13C132.934 248.081 136.793 249.159 139.611 251.812C142.549 254.728 144.336 258.605 144.643 262.732C144.727 266.486 144.065 270.219 142.695 273.714Z" fill="white"></path><path d="M142.157 274.08C138.45 273.407 134.952 271.872 131.946 269.599C128.787 266.925 126.7 263.2 126.068 259.11C125.578 255.281 127.12 251.135 128.358 247.803L129.329 248.164C128.13 251.389 126.638 255.403 127.095 258.979C127.709 262.802 129.661 266.283 132.604 268.8C135.489 270.968 138.842 272.43 142.394 273.071L142.157 274.08Z" fill="white"></path><path d="M139.404 250.991C134.57 255.317 128.491 258.002 122.038 258.662L121.936 257.631C129.572 256.851 136.608 253.14 141.563 247.279L142.356 247.945C141.445 249.029 140.459 250.047 139.404 250.991Z" fill="white"></path><path d="M149.984 263.469C141.532 264.304 134.122 267.836 129.649 273.161L128.856 272.496C133.498 266.964 141.163 263.299 149.882 262.438L149.984 263.469Z" fill="white"></path><path d="M127.384 313.836C127.318 313.87 117.711 295.15 105.93 272.029C94.144 248.901 84.6468 230.13 84.7132 230.096C84.7796 230.063 94.3844 248.778 106.17 271.907C117.952 295.027 127.451 313.802 127.384 313.836Z" fill="#263238"></path><path d="M167.147 281.269C167.181 281.336 159.935 285.096 150.964 289.666C141.991 294.238 134.692 297.889 134.658 297.823C134.624 297.757 141.869 293.998 150.842 289.426C159.812 284.855 167.113 281.203 167.147 281.269Z" fill="white"></path><path d="M164.71 286.395C164.744 286.462 159.373 289.266 152.716 292.658C146.057 296.051 140.633 298.746 140.6 298.68C140.566 298.614 145.935 295.81 152.594 292.417C159.251 289.026 164.676 286.329 164.71 286.395Z" fill="white"></path><path d="M108.522 238.392C108.648 238.617 108.725 238.867 108.745 239.125C108.766 239.382 108.73 239.641 108.642 239.884C108.553 240.126 108.412 240.347 108.23 240.53C108.047 240.713 107.828 240.855 107.585 240.945L106.889 241.3L107.484 242.469L106.354 243.045L104.075 238.574L105.903 237.643C106.118 237.499 106.363 237.405 106.619 237.365C106.875 237.326 107.136 237.342 107.385 237.413C107.634 237.484 107.865 237.609 108.061 237.778C108.257 237.947 108.414 238.156 108.522 238.392V238.392ZM107.38 238.974C107.341 238.877 107.28 238.791 107.203 238.721C107.126 238.652 107.034 238.6 106.934 238.571C106.834 238.543 106.728 238.537 106.626 238.555C106.523 238.572 106.426 238.613 106.342 238.674L105.713 238.994L106.381 240.303L107.009 239.983C107.107 239.951 107.197 239.897 107.272 239.825C107.346 239.753 107.403 239.666 107.439 239.568C107.475 239.471 107.488 239.367 107.478 239.264C107.467 239.161 107.434 239.062 107.38 238.974V238.974Z" fill="white"></path><path d="M112.544 238.797L110.853 239.658L110.982 240.687L109.828 241.275L109.315 235.904L110.429 235.337L114.477 238.906L113.301 239.505L112.544 238.797ZM111.738 238.033L110.495 236.864L110.709 238.556L111.738 238.033Z" fill="white"></path><path d="M114.315 238.481L114.211 237.36C114.737 237.441 115.276 237.36 115.755 237.128C116.224 236.89 116.331 236.65 116.221 236.433C115.86 235.723 113.85 237.399 113.003 235.738C112.597 234.94 112.847 233.992 114.035 233.386C114.542 233.119 115.113 232.998 115.685 233.037L115.814 234.153C115.374 234.109 114.931 234.185 114.531 234.373C114.057 234.614 113.977 234.88 114.091 235.104C114.439 235.788 116.446 234.121 117.286 235.769C117.683 236.548 117.439 237.51 116.25 238.115C115.659 238.434 114.983 238.562 114.315 238.481V238.481Z" fill="white"></path><path d="M118.013 236.597L117.909 235.476C118.435 235.557 118.974 235.476 119.453 235.244C119.921 235.005 120.029 234.766 119.918 234.548C119.557 233.839 117.547 235.515 116.701 233.855C116.295 233.056 116.545 232.108 117.733 231.502C118.24 231.235 118.811 231.114 119.382 231.153L119.512 232.269C119.072 232.225 118.628 232.301 118.228 232.489C117.755 232.73 117.675 232.996 117.789 233.22C118.137 233.904 120.144 232.237 120.984 233.885C121.381 234.664 121.136 235.626 119.948 236.231C119.356 236.55 118.68 236.678 118.013 236.597Z" fill="white"></path><path d="M124.363 230.32C124.49 230.546 124.566 230.796 124.587 231.053C124.608 231.311 124.572 231.57 124.483 231.812C124.394 232.055 124.254 232.275 124.072 232.459C123.889 232.642 123.67 232.783 123.427 232.873L122.731 233.228L123.326 234.397L122.195 234.974L119.917 230.502L121.744 229.571C121.96 229.428 122.205 229.333 122.461 229.294C122.716 229.254 122.978 229.27 123.227 229.342C123.476 229.413 123.706 229.537 123.903 229.706C124.099 229.875 124.256 230.085 124.363 230.32V230.32ZM123.222 230.902C123.183 230.806 123.122 230.72 123.045 230.65C122.968 230.58 122.875 230.529 122.775 230.5C122.675 230.471 122.57 230.465 122.468 230.483C122.365 230.501 122.268 230.541 122.183 230.602L121.555 230.922L122.223 232.232L122.851 231.911C122.949 231.879 123.039 231.825 123.113 231.754C123.188 231.682 123.245 231.594 123.281 231.497C123.316 231.4 123.33 231.296 123.319 231.193C123.309 231.09 123.276 230.991 123.222 230.902V230.902Z" fill="white"></path><path d="M125.063 230.696C124.861 230.251 124.794 229.757 124.871 229.274C124.947 228.791 125.164 228.341 125.494 227.98C125.824 227.62 126.253 227.364 126.727 227.245C127.201 227.125 127.7 227.148 128.162 227.31C128.623 227.471 129.027 227.765 129.323 228.154C129.619 228.543 129.794 229.01 129.827 229.498C129.86 229.986 129.748 230.473 129.507 230.898C129.265 231.323 128.905 231.668 128.469 231.89C128.169 232.045 127.84 232.138 127.503 232.162C127.166 232.186 126.827 232.141 126.508 232.029C126.189 231.917 125.896 231.741 125.648 231.512C125.399 231.283 125.2 231.005 125.063 230.696ZM128.364 229.015C128.224 228.826 128.033 228.682 127.814 228.599C127.596 228.516 127.357 228.497 127.128 228.544C126.899 228.592 126.688 228.704 126.52 228.867C126.352 229.031 126.234 229.239 126.181 229.467C126.128 229.695 126.14 229.933 126.218 230.154C126.296 230.375 126.435 230.57 126.619 230.714C126.803 230.859 127.025 230.947 127.258 230.97C127.492 230.993 127.726 230.948 127.935 230.842C128.088 230.754 128.221 230.636 128.326 230.495C128.431 230.354 128.506 230.193 128.546 230.021C128.586 229.85 128.591 229.672 128.559 229.499C128.528 229.326 128.461 229.161 128.364 229.015V229.015Z" fill="white"></path><path d="M132.385 228.285L131.768 228.599L132.373 229.788L131.242 230.364L128.964 225.893L130.792 224.961C131.007 224.818 131.252 224.724 131.508 224.684C131.764 224.645 132.025 224.661 132.274 224.732C132.523 224.803 132.753 224.928 132.95 225.097C133.146 225.266 133.303 225.475 133.411 225.711C133.573 225.987 133.653 226.305 133.642 226.625C133.631 226.946 133.528 227.256 133.347 227.521L134.926 228.487L133.715 229.104L132.385 228.285ZM131.231 225.993L130.602 226.313L131.27 227.622L131.898 227.302C131.991 227.263 132.075 227.205 132.145 227.131C132.214 227.058 132.268 226.971 132.303 226.876C132.337 226.781 132.352 226.68 132.346 226.579C132.34 226.478 132.313 226.38 132.267 226.289C132.221 226.199 132.157 226.12 132.079 226.055C132.001 225.991 131.91 225.944 131.813 225.916C131.716 225.888 131.614 225.88 131.514 225.894C131.414 225.907 131.317 225.941 131.231 225.993V225.993Z" fill="white"></path><path d="M134.498 224.336L133.27 224.962L132.759 223.959L136.34 222.135L136.851 223.137L135.629 223.76L137.396 227.228L136.265 227.805L134.498 224.336Z" fill="white"></path><path d="M159.69 250.802C159.814 251.355 159.827 251.928 159.727 252.486C159.626 253.043 159.416 253.576 159.107 254.051C158.798 254.526 158.397 254.935 157.927 255.252C157.458 255.57 156.93 255.791 156.374 255.902C156.374 255.902 155.674 251.779 159.69 250.802Z" fill="white"></path><path d="M160.545 257.065C160.481 257.557 160.319 258.031 160.069 258.459C159.818 258.887 159.485 259.261 159.088 259.558C158.691 259.855 158.239 260.07 157.757 260.19C157.276 260.31 156.776 260.332 156.286 260.256C156.454 259.281 156.989 258.407 157.781 257.814C158.573 257.221 159.562 256.953 160.545 257.065V257.065Z" fill="white"></path><path d="M159.78 262.502C159.571 262.989 159.268 263.428 158.886 263.795C158.505 264.162 158.055 264.449 157.561 264.64C157.067 264.83 156.54 264.919 156.011 264.903C155.483 264.886 154.962 264.764 154.481 264.543C154.481 264.543 156.209 261.043 159.78 262.502Z" fill="white"></path><path d="M152.729 255.394C153.225 255.387 153.717 255.48 154.176 255.667C154.636 255.854 155.053 256.13 155.404 256.481C155.755 256.832 156.032 257.249 156.219 257.708C156.407 258.167 156.5 258.66 156.494 259.155C155.505 259.127 154.564 258.722 153.864 258.023C153.164 257.323 152.758 256.383 152.729 255.394Z" fill="white"></path><path d="M154.039 259.494C154.377 259.671 154.675 259.915 154.916 260.211C155.157 260.507 155.335 260.849 155.44 261.215C155.545 261.582 155.574 261.967 155.526 262.345C155.478 262.724 155.353 263.088 155.16 263.417C154.502 263.036 154.017 262.413 153.808 261.682C153.599 260.95 153.682 260.166 154.039 259.494Z" fill="white"></path><path d="M156.189 247.413C156.433 247.79 156.6 248.212 156.679 248.655C156.757 249.097 156.747 249.551 156.648 249.989C156.549 250.427 156.363 250.841 156.101 251.206C155.839 251.571 155.507 251.88 155.124 252.115C154.668 251.344 154.524 250.427 154.722 249.553C154.92 248.679 155.445 247.913 156.189 247.413V247.413Z" fill="white"></path><path d="M150.312 246.78C150.751 246.761 151.189 246.831 151.601 246.984C152.012 247.138 152.389 247.372 152.708 247.674C153.027 247.976 153.282 248.339 153.458 248.741C153.634 249.143 153.728 249.577 153.733 250.016C152.857 250.017 152.014 249.682 151.378 249.08C150.741 248.478 150.36 247.655 150.312 246.78V246.78Z" fill="white"></path><path d="M150.931 251.704C151.419 251.527 151.938 251.449 152.457 251.476C152.976 251.503 153.485 251.634 153.952 251.86C154.42 252.086 154.838 252.404 155.181 252.794C155.524 253.184 155.786 253.639 155.95 254.132C154.962 254.444 153.891 254.367 152.958 253.915C152.024 253.464 151.299 252.673 150.931 251.704V251.704Z" fill="white"></path><path d="M152.619 266.598C152.619 266.598 152.63 266.586 152.654 266.564L152.761 266.469C152.854 266.385 152.996 266.265 153.165 266.096C153.648 265.626 154.085 265.109 154.467 264.554C155.031 263.728 155.483 262.83 155.812 261.885C156.007 261.328 156.164 260.758 156.279 260.179L156.357 259.722L156.396 259.49C156.407 259.412 156.414 259.334 156.423 259.255L156.473 258.779L156.497 258.294L156.507 258.051L156.504 257.809C156.502 257.649 156.502 257.489 156.497 257.331C156.486 257.172 156.475 257.015 156.464 256.86C156.458 256.782 156.454 256.704 156.447 256.627L156.417 256.398L156.36 255.945L156.278 255.505L156.237 255.289C156.225 255.217 156.204 255.147 156.188 255.077C156.154 254.936 156.12 254.798 156.086 254.661C155.83 253.694 155.458 252.761 154.979 251.882C154.653 251.292 154.281 250.728 153.867 250.196C153.717 250.011 153.595 249.871 153.515 249.774L153.424 249.663C153.404 249.638 153.394 249.625 153.394 249.625C153.394 249.625 153.406 249.636 153.427 249.66L153.522 249.768C153.604 249.863 153.727 250.002 153.88 250.186C154.929 251.503 155.693 253.023 156.123 254.651C156.157 254.788 156.192 254.927 156.226 255.068C156.243 255.138 156.263 255.208 156.276 255.28L156.317 255.498C156.344 255.643 156.372 255.79 156.4 255.939L156.458 256.393L156.488 256.623C156.496 256.7 156.5 256.778 156.506 256.856C156.517 257.013 156.528 257.17 156.539 257.329C156.544 257.488 156.544 257.648 156.546 257.809L156.549 258.052L156.539 258.296L156.515 258.782L156.464 259.26C156.455 259.339 156.449 259.418 156.437 259.496L156.398 259.728L156.32 260.188C156.203 260.768 156.046 261.34 155.848 261.898C155.517 262.845 155.061 263.744 154.491 264.57C154.106 265.126 153.665 265.641 153.176 266.107C153.005 266.275 152.862 266.393 152.766 266.475L152.657 266.568C152.632 266.588 152.619 266.598 152.619 266.598Z" fill="white"></path><path d="M114.39 273.883C114.765 274.309 115.22 274.655 115.731 274.902C116.241 275.149 116.795 275.291 117.361 275.321C117.928 275.35 118.494 275.266 119.027 275.073C119.56 274.88 120.049 274.582 120.465 274.198C120.465 274.198 117.541 271.208 114.39 273.883Z" fill="white"></path><path d="M118.955 278.256C119.39 278.493 119.869 278.641 120.362 278.69C120.856 278.739 121.354 278.689 121.828 278.543C122.302 278.396 122.742 278.157 123.122 277.838C123.502 277.519 123.814 277.127 124.04 276.685C123.152 276.249 122.131 276.168 121.185 276.46C120.24 276.752 119.442 277.395 118.955 278.256V278.256Z" fill="white"></path><path d="M123.804 280.833C124.32 280.95 124.854 280.963 125.375 280.87C125.896 280.777 126.393 280.582 126.837 280.294C127.281 280.006 127.663 279.633 127.961 279.195C128.258 278.757 128.465 278.265 128.569 277.746C128.569 277.746 124.722 277.086 123.804 280.833Z" fill="white"></path><path d="M122.196 270.95C121.9 271.348 121.686 271.8 121.567 272.282C121.448 272.763 121.426 273.264 121.504 273.754C121.581 274.244 121.756 274.713 122.017 275.134C122.279 275.556 122.622 275.92 123.027 276.207C123.586 275.39 123.811 274.391 123.656 273.414C123.502 272.436 122.98 271.555 122.196 270.95V270.95Z" fill="white"></path><path d="M124.744 274.42C124.689 274.797 124.711 275.182 124.809 275.551C124.907 275.92 125.078 276.265 125.314 276.565C125.549 276.866 125.842 277.115 126.177 277.299C126.511 277.482 126.88 277.596 127.259 277.633C127.337 276.876 127.119 276.119 126.65 275.519C126.181 274.92 125.498 274.526 124.744 274.42V274.42Z" fill="white"></path><path d="M113.706 269.059C113.868 269.478 114.111 269.861 114.423 270.185C114.734 270.508 115.107 270.767 115.52 270.944C115.933 271.121 116.377 271.214 116.827 271.217C117.276 271.22 117.721 271.133 118.136 270.961C117.78 270.139 117.123 269.483 116.299 269.13C115.476 268.776 114.548 268.751 113.706 269.059V269.059Z" fill="white"></path><path d="M116.648 263.933C116.375 264.277 116.173 264.672 116.056 265.095C115.938 265.518 115.907 265.961 115.963 266.396C116.02 266.832 116.164 267.251 116.386 267.63C116.608 268.009 116.903 268.34 117.255 268.602C117.771 267.894 117.996 267.015 117.883 266.146C117.77 265.278 117.328 264.485 116.648 263.933Z" fill="white"></path><path d="M120.268 267.327C119.838 267.618 119.47 267.992 119.187 268.428C118.903 268.864 118.71 269.352 118.618 269.863C118.526 270.374 118.538 270.899 118.652 271.406C118.766 271.913 118.98 272.392 119.282 272.815C120.116 272.199 120.683 271.287 120.866 270.267C121.049 269.246 120.835 268.194 120.268 267.327Z" fill="white"></path><path d="M131.326 277.447C131.326 277.447 131.31 277.449 131.278 277.455L131.138 277.485C131.015 277.512 130.835 277.556 130.599 277.593C129.935 277.708 129.26 277.758 128.586 277.74C127.586 277.711 126.594 277.55 125.637 277.26C125.071 277.091 124.518 276.882 123.982 276.635C123.844 276.567 123.706 276.499 123.566 276.429L123.355 276.325C123.286 276.288 123.218 276.247 123.149 276.208C123.012 276.129 122.874 276.049 122.734 275.969L122.329 275.703L122.126 275.569L121.932 275.425C121.803 275.328 121.674 275.234 121.549 275.137L121.187 274.834C121.128 274.783 121.067 274.735 121.009 274.683L120.841 274.525C120.729 274.419 120.619 274.315 120.509 274.212L120.201 273.887L120.049 273.727C119.999 273.674 119.954 273.617 119.907 273.562C119.814 273.452 119.721 273.343 119.63 273.235C118.998 272.46 118.462 271.611 118.033 270.707C117.747 270.096 117.509 269.464 117.322 268.816C117.261 268.586 117.219 268.405 117.187 268.283L117.152 268.145C117.143 268.113 117.138 268.098 117.138 268.098C117.138 268.098 117.14 268.114 117.147 268.146L117.179 268.285C117.208 268.408 117.247 268.589 117.306 268.821C117.755 270.443 118.536 271.955 119.6 273.26C119.691 273.368 119.784 273.478 119.877 273.588C119.925 273.643 119.969 273.701 120.02 273.754L120.172 273.914L120.48 274.241C120.59 274.344 120.701 274.449 120.813 274.555L120.982 274.714C121.04 274.766 121.1 274.815 121.16 274.865C121.28 274.966 121.401 275.068 121.523 275.17C121.649 275.267 121.778 275.362 121.907 275.458L122.102 275.604L122.305 275.738C122.442 275.828 122.578 275.917 122.713 276.005L123.129 276.244C123.198 276.284 123.266 276.325 123.336 276.362L123.547 276.467C123.687 276.536 123.827 276.605 123.965 276.673C124.503 276.92 125.058 277.128 125.625 277.297C126.587 277.586 127.582 277.745 128.586 277.77C129.261 277.785 129.937 277.731 130.602 277.609C130.838 277.57 131.018 277.523 131.14 277.494L131.279 277.46C131.311 277.452 131.326 277.447 131.326 277.447Z" fill="white"></path></g><path d="M385.772 342.749L383.295 348.963C383.295 348.963 347.225 321.444 319.407 323.783C318.71 324.294 317.905 324.641 317.055 324.796C316.204 324.952 315.329 324.913 314.496 324.682L304.137 322.116C303.097 321.876 302.144 321.354 301.38 320.609C300.617 319.863 300.073 318.922 299.808 317.888C299.808 317.888 278.809 300.538 250.346 303.234L239.743 303.68L284.615 229.352L407.08 249.092L385.772 342.749Z" fill="#455A64"></path><path d="M395.23 335.986L391.106 347.284C391.106 347.284 357.321 314.119 310.159 321.424L338.424 270.004C338.424 270.004 395.968 323.379 395.23 335.986Z" fill="#EBEBEB"></path><path d="M429.946 255.937C429.946 255.937 391.666 209.293 340.99 240.253L310.159 321.423C310.159 321.423 366.573 298.791 398.924 339.924L429.946 255.937Z" fill="white"></path><path d="M429.946 255.937C429.946 255.937 429.778 256.456 429.415 257.469C429.044 258.497 428.501 259.996 427.795 261.949C426.354 265.894 424.25 271.655 421.57 278.991C416.162 293.71 408.439 314.732 399.152 340.007L399.003 340.414L398.734 340.073C389.366 328.032 375.918 319.831 360.923 317.015C352.75 315.453 344.393 315.084 336.114 315.92C331.826 316.322 327.567 316.987 323.361 317.911C319.068 318.825 314.843 320.029 310.714 321.515C310.563 321.573 310.412 321.63 310.265 321.687L309.668 321.914L309.894 321.322C321.112 291.821 331.671 264.054 340.756 240.164L340.786 240.084L340.859 240.039C346.892 236.298 353.433 233.446 360.28 231.572C371.99 228.394 384.386 228.809 395.858 232.765C400.396 234.311 404.772 236.298 408.923 238.697C414.75 242.065 420.161 246.108 425.043 250.74C426.735 252.343 427.959 253.647 428.765 254.542C429.169 254.989 429.466 255.337 429.661 255.573C429.857 255.806 429.946 255.937 429.946 255.937C429.946 255.937 429.837 255.827 429.631 255.599C429.414 255.363 429.107 255.031 428.706 254.596C427.882 253.72 426.641 252.435 424.936 250.854C420.023 246.281 414.601 242.288 408.776 238.954C404.632 236.586 400.268 234.627 395.744 233.104C384.337 229.215 372.025 228.837 360.4 232.017C353.601 233.894 347.108 236.739 341.121 240.466L341.224 240.342C332.158 264.239 321.62 292.014 310.424 321.524L310.053 321.16C310.204 321.102 310.359 321.043 310.514 320.984C314.669 319.488 318.921 318.276 323.24 317.358C327.469 316.43 331.751 315.763 336.061 315.36C344.395 314.523 352.806 314.9 361.031 316.48C376.145 319.332 389.692 327.618 399.115 339.774L398.697 339.84C408.055 314.636 415.839 293.675 421.288 278.998C424.026 271.668 426.176 265.91 427.648 261.969C428.386 260.013 428.952 258.51 429.341 257.481C429.728 256.464 429.946 255.937 429.946 255.937Z" fill="#263238"></path><path d="M309.682 321.277C309.682 321.277 275.664 285.737 237.885 299.156L271.287 226.76L339.927 243.051L309.682 321.277Z" fill="#F5F5F5"></path><path d="M309.881 322.273L309.288 321.653C308.95 321.3 275.079 286.526 238.067 299.669L236.848 300.103L270.979 226.127L271.412 226.23L340.661 242.664L340.436 243.248L309.881 322.273ZM255.33 295.614C282.859 295.614 305.541 316.468 309.475 320.302L339.194 243.437L271.594 227.393L238.913 298.229C244.211 296.489 249.753 295.606 255.33 295.614Z" fill="#263238"></path><path d="M340.99 240.253C340.99 240.253 334.101 208.552 302.698 201.104L282.41 196.879L247.119 269.067C247.119 269.067 297.823 280.07 310.221 320.929L340.99 240.253Z" fill="white"></path><path d="M340.99 240.253C340.99 240.253 340.955 240.381 340.866 240.631L340.462 241.745C340.09 242.743 339.549 244.195 338.846 246.084C337.408 249.899 335.311 255.462 332.648 262.528C327.271 276.699 319.611 296.886 310.454 321.018L310.196 321.698L309.983 321.001C308.21 315.278 305.611 309.844 302.268 304.871C301.439 303.561 300.449 302.344 299.528 301.067C298.508 299.866 297.558 298.588 296.448 297.432C294.274 295.016 291.944 292.746 289.472 290.636C279.441 282.07 266.908 275.482 253.302 271.09C251.223 270.431 249.126 269.826 247.059 269.344L246.708 269.262L246.864 268.942C259.85 242.416 271.942 217.716 282.194 196.773L282.276 196.605L282.46 196.643C288.224 197.851 293.735 199.005 298.993 200.107C304.016 200.972 308.893 202.54 313.479 204.765C320.886 208.518 327.25 214.043 332.006 220.85C335.075 225.179 337.557 229.897 339.385 234.879C340.017 236.599 340.419 237.945 340.666 238.857C340.912 239.77 340.99 240.253 340.99 240.253C340.99 240.253 340.951 240.138 340.888 239.906C340.818 239.66 340.72 239.321 340.594 238.878C340.324 237.974 339.899 236.638 339.248 234.931C337.369 229.988 334.858 225.31 331.778 221.012C327.017 214.28 320.672 208.821 313.304 205.118C308.74 202.923 303.891 201.382 298.898 200.538C293.649 199.451 288.136 198.311 282.361 197.115L282.627 196.985C272.397 217.938 260.332 242.651 247.374 269.191L247.179 268.79C249.285 269.28 251.38 269.886 253.474 270.549C260.217 272.701 266.75 275.465 272.99 278.806C278.998 281.992 284.644 285.819 289.83 290.219C292.317 292.347 294.662 294.636 296.849 297.071C297.966 298.237 298.922 299.526 299.949 300.738C300.876 302.027 301.872 303.254 302.706 304.577C306.071 309.597 308.683 315.081 310.46 320.857L309.989 320.84C319.218 296.763 326.938 276.621 332.358 262.483C335.08 255.43 337.222 249.877 338.692 246.069C339.428 244.184 339.993 242.735 340.383 241.738L340.826 240.628C340.928 240.379 340.99 240.253 340.99 240.253Z" fill="#263238"></path><path d="M289.978 213.189C289.95 213.445 293.174 213.981 298.112 215.677C304.469 217.887 310.438 221.084 315.801 225.15C320.931 229.053 325.349 233.813 328.859 239.22C331.424 243.269 332.448 245.986 332.736 245.929C332.847 245.909 332.674 245.219 332.26 243.975C331.644 242.19 330.856 240.468 329.906 238.836C326.577 233.107 322.135 228.103 316.842 224.118C311.314 219.905 305.072 216.722 298.415 214.722C296.403 214.105 294.346 213.646 292.263 213.349C291.515 213.17 290.743 213.116 289.978 213.189V213.189Z" fill="#E0E0E0"></path><path d="M284.614 220.92C284.586 221.177 287.811 221.712 292.748 223.409C299.105 225.619 305.074 228.816 310.437 232.881C315.568 236.785 319.985 241.545 323.495 246.952C326.06 251.001 327.084 253.718 327.372 253.661C327.483 253.641 327.31 252.951 326.896 251.707C326.28 249.922 325.492 248.2 324.542 246.567C321.213 240.839 316.771 235.835 311.478 231.85C305.95 227.637 299.708 224.454 293.051 222.454C291.039 221.837 288.982 221.377 286.899 221.081C286.151 220.902 285.379 220.848 284.614 220.92Z" fill="#E0E0E0"></path><path d="M280.927 230.073C280.899 230.329 284.123 230.865 289.061 232.561C295.418 234.772 301.387 237.968 306.75 242.034C311.881 245.937 316.298 250.698 319.808 256.105C322.373 260.153 323.397 262.87 323.685 262.814C323.796 262.794 323.623 262.103 323.209 260.86C322.593 259.074 321.805 257.353 320.855 255.72C317.526 249.992 313.084 244.987 307.791 241.002C302.262 236.789 296.021 233.607 289.364 231.607C287.352 230.989 285.295 230.53 283.212 230.233C282.464 230.055 281.692 230.001 280.927 230.073V230.073Z" fill="#E0E0E0"></path><path d="M275.924 238.051C275.896 238.307 279.12 238.843 284.058 240.539C290.414 242.75 296.384 245.947 301.747 250.012C306.877 253.916 311.295 258.676 314.804 264.083C317.37 268.132 318.394 270.848 318.682 270.792C318.793 270.772 318.619 270.081 318.206 268.838C317.59 267.052 316.802 265.331 315.852 263.698C312.522 257.97 308.08 252.966 302.787 248.98C297.259 244.767 291.017 241.585 284.361 239.585C282.349 238.967 280.292 238.508 278.208 238.211C277.461 238.033 276.689 237.979 275.924 238.051Z" fill="#E0E0E0"></path><path d="M270.451 246.395C270.423 246.651 273.648 247.187 278.585 248.883C284.942 251.094 290.911 254.29 296.275 258.356C301.405 262.259 305.822 267.02 309.332 272.427C311.897 276.475 312.921 279.192 313.21 279.136C313.32 279.116 313.147 278.425 312.734 277.182C312.118 275.396 311.329 273.675 310.38 272.042C307.05 266.314 302.608 261.309 297.315 257.324C291.787 253.111 285.545 249.929 278.888 247.929C276.876 247.311 274.819 246.852 272.736 246.555C271.988 246.377 271.216 246.323 270.451 246.395V246.395Z" fill="#E0E0E0"></path><path d="M263.869 255.586C263.841 255.845 267.346 256.416 272.693 258.344C275.811 259.473 278.854 260.8 281.803 262.316C285.357 264.189 288.784 266.293 292.063 268.615C295.247 270.935 298.26 273.481 301.078 276.234C303.289 278.445 305.313 280.834 307.131 283.378C310.171 287.673 311.245 290.643 311.546 290.581C311.657 290.562 311.45 289.815 310.973 288.464C310.692 287.629 310.335 286.82 309.908 286.049C309.4 284.972 308.811 283.934 308.147 282.945C306.421 280.257 304.436 277.745 302.22 275.445C299.387 272.566 296.323 269.925 293.057 267.549C289.694 265.165 286.156 263.038 282.473 261.185C279.422 259.684 276.26 258.417 273.016 257.396C271.776 256.984 270.516 256.64 269.239 256.364C268.29 256.112 267.325 255.922 266.351 255.794C265.539 255.6 264.702 255.53 263.869 255.586Z" fill="#E0E0E0"></path><path d="M260.694 263.637C260.665 263.901 264.191 264.462 269.525 266.48C272.632 267.663 275.654 269.056 278.572 270.65C282.077 272.622 285.448 274.824 288.663 277.241C291.774 279.66 294.715 282.292 297.464 285.116C299.617 287.388 301.593 289.823 303.373 292.398C306.356 296.748 307.447 299.723 307.743 299.663C307.854 299.644 307.648 298.893 307.173 297.537C306.893 296.699 306.542 295.887 306.123 295.109C305.624 294.026 305.048 292.98 304.4 291.98C302.717 289.267 300.787 286.715 298.634 284.357C295.878 281.409 292.891 278.684 289.703 276.209C286.404 273.726 282.921 271.497 279.284 269.541C276.258 267.957 273.11 266.618 269.869 265.539C268.631 265.103 267.368 264.74 266.087 264.452C265.135 264.188 264.166 263.989 263.188 263.857C262.372 263.659 261.532 263.585 260.694 263.637V263.637Z" fill="#E0E0E0"></path><path d="M331.178 304.846C331.354 305.068 334.21 303.404 339.467 301.849C346.553 299.803 353.985 299.24 361.298 300.195C368.841 301.22 376.115 303.687 382.725 307.463C387.777 310.356 390.447 312.737 390.641 312.562C390.713 312.503 390.127 311.846 388.918 310.77C387.169 309.247 385.3 307.868 383.329 306.644C376.651 302.486 369.163 299.799 361.364 298.764C353.827 297.744 346.156 298.469 338.944 300.884C336.9 301.578 334.925 302.46 333.045 303.52C331.752 304.271 331.113 304.768 331.178 304.846Z" fill="#E0E0E0"></path><path d="M335.438 294.52C335.614 294.743 338.47 293.079 343.727 291.524C350.813 289.478 358.245 288.915 365.559 289.87C373.101 290.895 380.376 293.362 386.985 297.138C392.038 300.031 394.708 302.411 394.902 302.237C394.973 302.178 394.387 301.521 393.179 300.446C391.429 298.922 389.56 297.542 387.589 296.319C380.911 292.16 373.423 289.474 365.624 288.439C358.087 287.419 350.417 288.144 343.205 290.559C341.16 291.252 339.185 292.135 337.304 293.195C336.012 293.946 335.373 294.443 335.438 294.52Z" fill="#E0E0E0"></path><path d="M339.699 284.195C339.874 284.418 342.731 282.754 347.987 281.198C355.074 279.153 362.506 278.59 369.819 279.545C377.362 280.57 384.636 283.037 391.245 286.812C396.298 289.706 398.968 292.086 399.162 291.912C399.234 291.852 398.648 291.196 397.439 290.12C395.69 288.597 393.821 287.217 391.85 285.994C385.172 281.835 377.684 279.149 369.885 278.114C362.348 277.094 354.677 277.819 347.465 280.234C345.421 280.927 343.446 281.81 341.565 282.869C340.273 283.621 339.633 284.118 339.699 284.195Z" fill="#E0E0E0"></path><path d="M343.959 273.87C344.135 274.092 346.991 272.428 352.248 270.873C359.334 268.827 366.766 268.264 374.079 269.22C381.622 270.244 388.896 272.712 395.506 276.487C400.558 279.38 403.229 281.761 403.422 281.587C403.494 281.527 402.908 280.871 401.7 279.795C399.95 278.272 398.081 276.892 396.11 275.669C389.432 271.51 381.944 268.823 374.145 267.788C366.608 266.769 358.937 267.494 351.725 269.909C349.681 270.602 347.706 271.484 345.826 272.544C344.533 273.295 343.894 273.793 343.959 273.87Z" fill="#E0E0E0"></path><path d="M348.22 263.545C348.395 263.767 351.251 262.103 356.508 260.548C363.594 258.502 371.026 257.939 378.34 258.894C385.882 259.919 393.157 262.386 399.766 266.162C404.819 269.055 407.489 271.436 407.683 271.261C407.754 271.202 407.168 270.546 405.96 269.47C404.21 267.947 402.341 266.567 400.37 265.343C393.692 261.185 386.204 258.498 378.405 257.463C370.868 256.443 363.198 257.168 355.986 259.583C353.942 260.277 351.966 261.159 350.086 262.219C348.793 262.97 348.154 263.467 348.22 263.545Z" fill="#E0E0E0"></path><path d="M352.48 253.219C352.656 253.442 355.512 251.778 360.769 250.223C367.855 248.177 375.287 247.614 382.6 248.569C390.143 249.594 397.417 252.061 404.026 255.837C409.08 258.73 411.75 261.111 411.943 260.936C412.015 260.876 411.429 260.22 410.22 259.144C408.471 257.621 406.602 256.242 404.631 255.018C397.953 250.859 390.465 248.173 382.666 247.138C375.129 246.118 367.458 246.843 360.246 249.258C358.202 249.952 356.227 250.834 354.346 251.893C353.054 252.645 352.414 253.142 352.48 253.219Z" fill="#E0E0E0"></path><style> .loc1 { animation: 2s ease-in-out infinite fall; transform-origin: center; } .loc2 { animation: 2s ease-in-out .6s infinite fall; transform-origin: center; } @keyframes fall { 0% { transform: translateY(-40px); opacity: 0; } 30% { transform: translateY(0px); opacity: 1; } 100% { transform: translateY(0px); opacity: 0; } } .document { animation: 4s ease-in-out infinite documentanim; transform-origin: center; } @keyframes documentanim { 0% { transform: rotate(0deg) } 50% { transform: rotate(-6deg) } 100% { transform: rotate(0deg) } } .strokeline { animation: 5s linear infinite strokeanim; stroke-dashoffset: 0; } @keyframes strokeanim { to{ stroke-dashoffset: 100; } } </style></svg> 