<?xml version="1.0" ?><!DOCTYPE svg  PUBLIC '-//W3C//DTD SVG 1.1//EN'  'http://www.w3.org/Graphics/SVG/1.1/DTD/svg11.dtd'><svg enable-background="new 0 0 128 128" version="1.1" viewBox="0 0 128 128" xml:space="preserve" xmlns="http://www.w3.org/2000/svg" xmlns:xlink="http://www.w3.org/1999/xlink"><g id="Слой_1"><g><rect fill="#877A84" height="90" width="10" x="94" y="34"/><path d="M114,40H94v78h20c5.5,0,10-4.5,10-10V50C124,44.5,119.5,40,114,40z" fill="#E5E3E3"/><path d="M114.5,106.4V89.6c0-3.3-2.7-6-6-6h0c-3.3,0-6,2.7-6,6v16.8c0,3.3,2.7,6,6,6h0    C111.8,112.4,114.5,109.7,114.5,106.4z" fill="#FAC4BC"/><path d="M102.5,106.4V98h12v8.4c0,3.3-2.7,6-6,6h0C105.2,112.4,102.5,109.7,102.5,106.4z" fill="#877A84"/><path d="M106.1,106.4V89.6c0-2.7,1.8-5,4.2-5.7c-0.6-0.2-1.2-0.3-1.8-0.3c-3.3,0-6,2.7-6,6v16.8c0,3.3,2.7,6,6,6    c0.6,0,1.2-0.1,1.8-0.3C107.9,111.4,106.1,109.1,106.1,106.4z" fill="#FDFDFE"/><path d="M114.5,68.4V51.6c0-3.3-2.7-6-6-6h0c-3.3,0-6,2.7-6,6v16.8c0,3.3,2.7,6,6,6h0    C111.8,74.4,114.5,71.7,114.5,68.4z" fill="#FAC4BC"/><path d="M102.5,68.4V60h12v8.4c0,3.3-2.7,6-6,6h0C105.2,74.4,102.5,71.7,102.5,68.4z" fill="#877A84"/><path d="M106.1,68.4V51.6c0-2.7,1.8-5,4.2-5.7c-0.6-0.2-1.2-0.3-1.8-0.3c-3.3,0-6,2.7-6,6v16.8c0,3.3,2.7,6,6,6    c0.6,0,1.2-0.1,1.8-0.3C107.9,73.4,106.1,71.1,106.1,68.4z" fill="#FDFDFE"/><rect fill="#FDFDFE" height="78" width="8" x="94" y="40"/><path d="M94,4H24c-5.5,0-10,4.5-10,10v20h90V14C104,8.5,99.5,4,94,4z M73,22H45c-1.7,0-3-1.3-3-3c0-1.7,1.3-3,3-3    h11v-1c0-1.7,1.3-3,3-3s3,1.3,3,3v1h11c1.7,0,3,1.3,3,3C76,20.7,74.7,22,73,22z" fill="#F2F2F2"/><g><path d="M34,4H24c-5.5,0-10,4.5-10,10v20h10V14C24,8.5,28.5,4,34,4z" fill="#FFFFFF"/></g><rect fill="#F2F2F2" height="90" width="90" x="4" y="34"/><path d="M82.7,46.5h-3.2v-3.3c0-0.8-0.7-1.5-1.5-1.5s-1.5,0.7-1.5,1.5v3.3h-3.2c-0.8,0-1.5,0.7-1.5,1.5    s0.7,1.5,1.5,1.5h3.2v3.2c0,0.8,0.7,1.5,1.5,1.5s1.5-0.7,1.5-1.5v-3.2h3.2c0.8,0,1.5-0.7,1.5-1.5S83.6,46.5,82.7,46.5z" fill="#F37C87"/><polygon fill="#74CABC" opacity="0.2" points="94,52.6 4,104.6 4,124 94,124   "/><polygon fill="#74CABC" opacity="0.2" points="94,124 94,72.6 5,124   "/><g><rect fill="#FFFFFF" height="90" width="10" x="4" y="34"/></g><polygon fill="#74CABC" opacity="0.2" points="94,92.6 39.6,124 94,124   "/><path d="M104,125.5c0.8,0,1.5-0.7,1.5-1.5v-4.5h8.5c6.3,0,11.5-5.2,11.5-11.5V50c0-6.3-5.2-11.5-11.5-11.5h-8.5V34    c0,0,0,0,0,0c0,0,0,0,0,0V14c0-6.3-5.2-11.5-11.5-11.5H24c-6.3,0-11.5,5.2-11.5,11.5v18.5H4c-0.8,0-1.5,0.7-1.5,1.5v90    c0,0.8,0.7,1.5,1.5,1.5h90H104z M102.5,122.5h-7v-3h7V122.5z M114,41.5c4.7,0,8.5,3.8,8.5,8.5v58c0,4.7-3.8,8.5-8.5,8.5H95.5v-75    H114z M95.5,38.5v-3h7v3H95.5z M15.5,14c0-4.7,3.8-8.5,8.5-8.5h70c4.7,0,8.5,3.8,8.5,8.5v18.5h-87V14z M92.5,122.5h-87v-87h87    V122.5z" fill="#454B54"/><path d="M108.5,113.9c4.1,0,7.5-3.4,7.5-7.5V89.6c0-4.1-3.4-7.5-7.5-7.5s-7.5,3.4-7.5,7.5v16.8    C101,110.5,104.4,113.9,108.5,113.9z M104,89.6c0-2.5,2-4.5,4.5-4.5s4.5,2,4.5,4.5v6.9h-9V89.6z M104,99.5h9v6.9    c0,2.5-2,4.5-4.5,4.5s-4.5-2-4.5-4.5V99.5z" fill="#454B54"/><path d="M108.5,75.9c4.1,0,7.5-3.4,7.5-7.5V51.6c0-4.1-3.4-7.5-7.5-7.5s-7.5,3.4-7.5,7.5v16.8    C101,72.5,104.4,75.9,108.5,75.9z M104,51.6c0-2.5,2-4.5,4.5-4.5s4.5,2,4.5,4.5v6.9h-9V51.6z M104,61.5h9v6.9c0,2.5-2,4.5-4.5,4.5    s-4.5-2-4.5-4.5V61.5z" fill="#454B54"/><path d="M73,14.5h-9.5c-0.2-2.2-2.2-4-4.5-4s-4.2,1.8-4.5,4H45c-2.5,0-4.5,2-4.5,4.5s2,4.5,4.5,4.5h28    c2.5,0,4.5-2,4.5-4.5S75.5,14.5,73,14.5z M73,20.5H45c-0.8,0-1.5-0.7-1.5-1.5s0.7-1.5,1.5-1.5h11c0.8,0,1.5-0.7,1.5-1.5v-1    c0-0.8,0.7-1.5,1.5-1.5s1.5,0.7,1.5,1.5v1c0,0.8,0.7,1.5,1.5,1.5h11c0.8,0,1.5,0.7,1.5,1.5S73.8,20.5,73,20.5z" fill="#454B54"/><path d="M15,45.5h33c0.8,0,1.5-0.7,1.5-1.5s-0.7-1.5-1.5-1.5H15c-0.8,0-1.5,0.7-1.5,1.5S14.2,45.5,15,45.5z" fill="#454B54"/><path d="M15,55.5h28c0.8,0,1.5-0.7,1.5-1.5s-0.7-1.5-1.5-1.5H15c-0.8,0-1.5,0.7-1.5,1.5S14.2,55.5,15,55.5z" fill="#454B54"/><path d="M15,65.5h8c0.8,0,1.5-0.7,1.5-1.5s-0.7-1.5-1.5-1.5h-8c-0.8,0-1.5,0.7-1.5,1.5S14.2,65.5,15,65.5z" fill="#454B54"/></g></g></svg>