<?xml version="1.0" ?><svg viewBox="0 0 128 128" xmlns="http://www.w3.org/2000/svg"><defs><style>.cls-1{fill:#ccc;}.cls-2{fill:#b3b3b3;}.cls-3{fill:#f2f2f2;}.cls-4{fill:#f7f7f7;}.cls-5{fill:#e6e6e6;}.cls-6{fill:#333;}</style></defs><title/><g data-name="10 Literature" id="_10_Literature"><path class="cls-1" d="M49.76,24h59.9a2,2,0,0,0,1.91-2.62A8,8,0,0,0,104,16H40a8,8,0,0,1,7.85,6.44A2,2,0,0,0,49.76,24Z"/><path class="cls-1" d="M109.65,24a2,2,0,0,0,1.91-2.62C108.6,12.82,96,15,96,24Z"/><path class="cls-2" d="M105,16.08A8,8,0,0,0,96,24h2.12A8,8,0,0,1,105,16.08Z"/><path class="cls-3" d="M96,24a8,8,0,0,1,8-8H96Z"/><path class="cls-3" d="M40,16a8,8,0,0,0-8,8v88H88a8,8,0,0,0,8-8V16Z"/><path class="cls-4" d="M42.94,16H40a8,8,0,0,0-8,8v88h3V24A8,8,0,0,1,42.94,16Z"/><path class="cls-5" d="M93.44,21.88v79.56a8,8,0,0,1-8,8H32V112H88a8,8,0,0,0,8-8V24a8,8,0,0,1,8-8H99.32A5.88,5.88,0,0,0,93.44,21.88Z"/><path class="cls-6" d="M86,66H42a2,2,0,0,1,0-4H86A2,2,0,0,1,86,66Z"/><path class="cls-6" d="M74.37,40h-21a2,2,0,0,1,0-4h21A2,2,0,0,1,74.37,40Z"/><path class="cls-6" d="M86,53H42a2,2,0,0,1,0-4H86A2,2,0,0,1,86,53Z"/><path class="cls-6" d="M86,79H42a2,2,0,0,1,0-4H86A2,2,0,0,1,86,79Z"/><path class="cls-5" d="M75.6,104H15.7c-4.32,0-1,8,5.65,8h64a8,8,0,0,1-7.85-6.44A2,2,0,0,0,75.6,104Z"/><path class="cls-3" d="M18,104H15.7a2,2,0,0,0-1.91,2.62c2.08,6,8.16,5.38,9.88,5.38C17,112,13.69,104,18,104Z"/><path class="cls-5" d="M83.35,112h2a8,8,0,0,1-3.45-.78A8,8,0,0,0,83.35,112Z"/><path class="cls-1" d="M80.15,105.56c-.38-1.93-2.47-1.56-4.55-1.56a2,2,0,0,1,1.95,1.56A8,8,0,0,0,85.39,112H88A8,8,0,0,1,80.15,105.56Z"/></g></svg>